<!DOCTYPE svg PUBLIC "-//W3C//DTD SVG 1.1//EN" "http://www.w3.org/Graphics/SVG/1.1/DTD/svg11.dtd">
<!-- Uploaded to: SVG Repo, www.svgrepo.com, Transformed by: SVG Repo Mixer Tools -->
<svg fill="#ff6600" width="800px" height="800px" viewBox="-2.4 -2.4 28.80 28.80" xmlns="http://www.w3.org/2000/svg" stroke="#ff6600">
<g id="SVGRepo_bgCarrier" stroke-width="0">
<rect x="-2.4" y="-2.4" width="28.80" height="28.80" rx="3.168" fill="#f9d6b9" strokewidth="0"/>
</g>
<g id="SVGRepo_tracerCarrier" stroke-linecap="round" stroke-linejoin="round"/>
<g id="SVGRepo_iconCarrier">
<path d="M20,18H4l2-2V10a6,6,0,0,1,5-5.91V3a1,1,0,0,1,2,0V4.09a5.9,5.9,0,0,1,1.3.4A3.992,3.992,0,0,0,18,10v6Zm-8,4a2,2,0,0,0,2-2H10A2,2,0,0,0,12,22ZM18,4a2,2,0,1,0,2,2A2,2,0,0,0,18,4Z"/>
</g>
</svg>