<!-- settings.svg -->
<svg xmlns="http://www.w3.org/2000/svg" width="18" height="18" fill="#d3d3d3" viewBox="0 0 24 24">
  <path d="M19.14,12.94A7.87,7.87,0,0,0,19.14,11l2.11-1.65a.5.5,0,0,0,.11-.65l-2-3.46a.5.5,0,0,0-.6-.22L16.7,6.05a7.94,7.94,0,0,0-1.6-.93L14.5,2.5A.5.5,0,0,0,14,2H10a.5.5,0,0,0-.5.5l-.6,2.62a8.14,8.14,0,0,0-1.6.93L4.24,5a.5.5,0,0,0-.6.22l-2,3.46a.5.5,0,0,0,.11.65L3.86,11a7.87,7.87,0,0,0,0,1l-2.11,1.65a.5.5,0,0,0-.11.65l2,3.46a.5.5,0,0,0,.6.22L6.3,17.95a7.94,7.94,0,0,0,1.6.93l.6,2.62A.5.5,0,0,0,10,22h4a.5.5,0,0,0,.5-.5l.6-2.62a8.14,8.14,0,0,0,1.6-.93l2.46,1a.5.5,0,0,0,.6-.22l2-3.46a.5.5,0,0,0-.11-.65ZM12,15.5A3.5,3.5,0,1,1,15.5,12,3.5,3.5,0,0,1,12,15.5Z"></path>
</svg>
